<svg fill="none" viewBox="0 0 48 48" xmlns="http://www.w3.org/2000/svg"><path clip-rule="evenodd" d="M8 12a4 4 0 1 0 0-8 4 4 0 0 0 0 8ZM10 42a6 6 0 1 0 0-12 6 6 0 0 0 0 12ZM38 44a6 6 0 1 0 0-12 6 6 0 0 0 0 12ZM22 28a8 8 0 1 0 0-16 8 8 0 0 0 0 16ZM34 12a4 4 0 1 0 0-8 4 4 0 0 0 0 8Z" data-follow-stroke="currentColor" stroke="currentColor" stroke-linecap="round" stroke-linejoin="round" stroke-width="4"/><path d="m11 11 4 4M30 12l-2 2M34 33.5 28 26M14 31l4-4" data-follow-stroke="currentColor" stroke="currentColor" stroke-linecap="round" stroke-linejoin="round" stroke-width="4"/></svg>