<svg fill="none" viewBox="0 0 48 48" xmlns="http://www.w3.org/2000/svg"><ellipse cx="14" cy="10" data-follow-stroke="currentColor" rx="10" ry="5" stroke="currentColor" stroke-linecap="round" stroke-linejoin="round" stroke-width="4"/><path d="M4 10v7c0 2.761 4.477 5 10 5s10-2.239 10-5v-7" data-follow-stroke="currentColor" stroke="currentColor" stroke-linecap="round" stroke-linejoin="round" stroke-width="4"/><path d="M4 17v7c0 2.761 4.477 5 10 5s10-2.239 10-5v-7" data-follow-stroke="currentColor" stroke="currentColor" stroke-linecap="round" stroke-linejoin="round" stroke-width="4"/><path d="M4 24v7c0 2.761 4.477 5 10 5s10-2.239 10-5v-7" data-follow-stroke="currentColor" stroke="currentColor" stroke-linecap="round" stroke-linejoin="round" stroke-width="4"/><path d="M4 31v7c0 2.761 4.477 5 10 5s10-2.239 10-5v-7" data-follow-stroke="currentColor" stroke="currentColor" stroke-linecap="round" stroke-linejoin="round" stroke-width="4"/><ellipse cx="34" cy="24" data-follow-stroke="#333" rx="10" ry="5" stroke="currentColor" stroke-linecap="round" stroke-linejoin="round" stroke-width="4"/><path d="M24 24v7c0 2.761 4.477 5 10 5s10-2.239 10-5v-7" data-follow-stroke="currentColor" stroke="currentColor" stroke-linecap="round" stroke-linejoin="round" stroke-width="4"/><path d="M24 31v7c0 2.761 4.477 5 10 5s10-2.239 10-5v-7" data-follow-stroke="currentColor" stroke="currentColor" stroke-linecap="round" stroke-linejoin="round" stroke-width="4"/></svg>