<svg fill="none" viewBox="0 0 48 48" xmlns="http://www.w3.org/2000/svg"><path d="M24 37c7.18 0 13-5.82 13-13s-5.82-13-13-13-13 5.82-13 13 5.82 13 13 13Z" data-follow-stroke="currentColor" stroke="currentColor" stroke-linejoin="round" stroke-width="4"/><path d="M24 6a2.5 2.5 0 1 0 0-5 2.5 2.5 0 0 0 0 5ZM38.5 12a2.5 2.5 0 1 0 0-5 2.5 2.5 0 0 0 0 5ZM44.5 26.5a2.5 2.5 0 1 0 0-5 2.5 2.5 0 0 0 0 5ZM38.5 41a2.5 2.5 0 1 0 0-5 2.5 2.5 0 0 0 0 5ZM24 47a2.5 2.5 0 1 0 0-5 2.5 2.5 0 0 0 0 5ZM9.5 41a2.5 2.5 0 1 0 0-5 2.5 2.5 0 0 0 0 5ZM3.5 26.5a2.5 2.5 0 1 0 0-5 2.5 2.5 0 0 0 0 5ZM9.5 12a2.5 2.5 0 1 0 0-5 2.5 2.5 0 0 0 0 5Z" data-follow-fill="currentColor" fill="currentColor"/></svg>