<svg fill="none" viewBox="0 0 48 48" xmlns="http://www.w3.org/2000/svg"><path d="M6 9a3 3 0 0 1 3-3h25.281L42 13.207V39a3 3 0 0 1-3 3H9a3 3 0 0 1-3-3V9Z" data-follow-stroke="currentColor" stroke="currentColor" stroke-linejoin="round" stroke-width="4"/><path clip-rule="evenodd" d="M24.008 6 24 13.385c0 .34-.448.615-1 .615h-8c-.552 0-1-.275-1-.615V6"/><path d="M24.008 6 24 13.385c0 .34-.448.615-1 .615h-8c-.552 0-1-.275-1-.615V6h10.008Z" data-follow-stroke="currentColor" stroke="currentColor" stroke-linejoin="round" stroke-width="4"/><path d="M9 6h25.281M14 26h20M14 34h10.008" data-follow-stroke="currentColor" stroke="currentColor" stroke-linecap="round" stroke-linejoin="round" stroke-width="4"/></svg>