<svg xmlns:xlink="http://www.w3.org/1999/xlink" xmlns="http://www.w3.org/2000/svg" version="1.1" viewBox="0 0 1024 1024" height="1024px" width="1024px">
  <title>无授权信息</title>
  <defs>
    <rect rx="22.1405405" height="1024" width="1024" y="0" x="0" id="path-1"/>
    <linearGradient id="linearGradient-3" y2="64.8840762%" x2="50%" y1="-33.7184979%" x1="115.913479%">
      <stop offset="0%" stop-color="var(--el-color-primary)"/>
      <stop offset="100%" stop-opacity="0" stop-color="#FFFFFF"/>
    </linearGradient>
    <linearGradient id="linearGradient-4" y2="100%" x2="70.4980572%" y1="-20.569195%" x1="10.5031837%">
      <stop offset="0%" stop-color="var(--el-color-primary)"/>
      <stop offset="100%" stop-opacity="0" stop-color="#FFFFFF"/>
    </linearGradient>
    <linearGradient id="linearGradient-5" y2="104.73608%" x2="38.801584%" y1="-97.78046%" x1="100.191761%">
      <stop offset="0%" stop-color="var(--el-color-primary)"/>
      <stop offset="100%" stop-color="#FFFFFF"/>
    </linearGradient>
    <linearGradient id="linearGradient-6" y2="100%" x2="50%" y1="-27.9013949%" x1="50%">
      <stop offset="0%" stop-color="var(--el-color-primary)"/>
      <stop offset="100%" stop-opacity="0" stop-color="#FFFFFF"/>
    </linearGradient>
    <linearGradient id="linearGradient-7" y2="100%" x2="50%" y1="-27.9013949%" x1="50%">
      <stop offset="0%" stop-color="var(--el-color-primary)"/>
      <stop offset="100%" stop-opacity="0" stop-color="#FFFFFF"/>
    </linearGradient>
    <linearGradient id="linearGradient-8" y2="100%" x2="50%" y1="-221.1569%" x1="50%">
      <stop offset="0%" stop-color="#D2D2D2"/>
      <stop offset="100%" stop-opacity="0" stop-color="#D2D2D2"/>
    </linearGradient>
  </defs>
  <g fill-rule="evenodd" fill="none" stroke-width="1" stroke="none" id="无授权信息">
    <g>
      <mask fill="white" id="mask-2">
        <use xlink:href="#path-1"/>
      </mask>
      <g id="蒙版"/>
      <g mask="url(#mask-2)" id="编组-3">
        <g transform="translate(0, 238.0108)">
          <polygon points="364.778581 305.822736 641.478571 305.822736 641.478571 371.08406 364.778581 371.08406" fill-rule="nonzero" fill="var(--el-color-primary-light-3)" id="矩形"/>
          <polygon points="421.212998 338.453398 420.743172 341.821369 419.527151 344.664819 417.592573 347.176993 415.105257 349.109435 412.231027 350.296507 408.88697 350.765814 405.542913 350.296507 402.668682 349.109435 400.181367 347.176993 398.246788 344.664819 397.058404 341.821369 396.560941 338.453398 397.058404 335.113034 398.246788 332.269584 400.181367 329.75741 402.668682 327.824968 405.542913 326.637896 408.88697 326.168589 412.231027 326.637896 415.105257 327.824968 417.592573 329.75741 419.527151 332.269584 420.743172 335.113034" fill-rule="nonzero" fill="#FFFFFF" id="椭圆形"/>
          <polygon points="489.448343 340.192596 488.923243 342.704771 487.569038 344.747638 485.551549 346.100347 483.036597 346.624867 480.521645 346.100347 478.504156 344.747638 477.122315 342.704771 476.624852 340.192596 477.122315 337.680422 478.504156 335.665161 480.521645 334.312451 483.036597 333.787931 485.551549 334.312451 487.569038 335.665161 488.923243 337.680422" fill-rule="nonzero" fill="#FFFFFF" id="椭圆形"/>
          <polygon points="511.613084 340.192596 511.115621 342.704771 509.73378 344.747638 507.716291 346.100347 505.201339 346.624867 502.686387 346.100347 500.668898 344.747638 499.314693 342.704771 498.789593 340.192596 499.314693 337.680422 500.668898 335.665161 502.686387 334.312451 505.201339 333.787931 507.716291 334.312451 509.73378 335.665161 511.115621 337.680422" fill-rule="nonzero" fill="#FFFFFF" id="椭圆形"/>
          <polygon points="527.587175 333.843144 616.411962 333.843144 618.291266 334.202026 619.811292 335.251066 620.833855 336.741807 621.220771 338.646643 621.220771 341.821369 620.833855 343.698598 619.811292 345.216945 618.291266 346.238379 616.411962 346.624867 527.587175 346.624867 525.70787 346.238379 524.187844 345.216945 523.165281 343.698598 522.778366 341.821369 522.778366 338.646643 523.165281 336.741807 524.187844 335.251066 525.70787 334.202026" fill-rule="nonzero" fill="#FFFFFF" id="矩形"/>
          <g fill-rule="evenodd" fill="none" stroke-width="1" id="编组-2">
            <g fill-rule="nonzero" transform="translate(162.5599, 0)" id="编组">
              <polygon points="592.450826 498.100707 589.3555 489.432325 587.255101 479.632083 586.398359 469.500567 586.868185 459.341443 588.001295 452.660716 589.852963 446.421689 592.367915 440.541544 595.711972 435.158313 599.857498 430.520452 604.887401 426.517537 606.932527 428.091097 608.342006 430.133964 609.060564 432.508107 609.032927 435.075494 608.286732 439.989418 607.070711 451.308006 606.794343 463.813666 607.540538 469.25211 608.894743 472.371623 610.248947 473.448269 612.072979 473.393057 614.864299 471.791891 619.037461 467.319668 626.084854 456.884481 638.963619 434.136879 651.870021 411.527309 659.000324 400.705634 667.015006 390.325661 673.758394 383.451689 680.225413 378.42734 686.471338 374.921338 693.159452 372.491982 699.156645 371.470549 704.628738 371.691399 709.8521 373.126928 714.191083 375.639102 717.783871 379.283135 720.32646 383.755358 721.818849 389.331833 722.150491 396.343837 721.155565 403.328234 718.530066 411.610128 713.942351 421.493188 708.884811 429.471413 700.400302 443.19175 696.006046 451.031943 692.219799 458.706498 689.345568 466.270628 688.212458 472.09556 688.46119 475.601562 689.760121 477.920492 692.109252 479.438839 695.232214 479.714902 698.299903 479.052351 705.070927 476.540176 711.924862 473.393057 718.778797 470.383969 725.384001 468.258282 729.805894 467.595731 734.144877 467.8994 738.511497 469.224503 741.966102 471.377796 744.702148 474.055608 746.857821 477.368366 748.985858 483.000054 750.008421 489.349506 750.036057 495.864596 749.206952 502.158835 746.526179 511.40695 742.104286 520.737884 736.21764 529.406266 728.866242 537.16364 723.283601 541.608256 717.203498 545.25229 710.570657 548.123346 703.606175 550.000575 696.199503 550.745946 688.212458 550.359458 675.554788 548.09574 661.238907 544.396494 646.923027 539.537783 632.855878 533.464394 623.76336 528.688502 615.582857 523.526121 608.203822 517.977252 601.543344 511.683013 596.375256 505.140317 592.533736 498.349164" fill="url(#linearGradient-3)" id="路径"/>
              <polygon points="39.9075893 440.458725 31.7823599 436.096928 23.6571305 430.216783 16.222822 423.287598 9.75580266 415.447406 4.58771456 406.834236 1.21602073 397.834578 0.0552736694 391.623157 0 385.411737 1.05019972 379.117498 3.59278851 378.896647 5.99719313 379.421167 8.12522941 380.635845 9.83871316 382.54068 12.6023966 386.654021 19.2905106 395.87453 27.4986505 405.315889 31.6994494 408.849497 34.7947749 410.257419 36.5082587 410.146993 37.8348267 408.877103 38.8297528 405.840409 38.9403001 399.711807 37.1439059 387.26136 31.3401706 361.863552 25.7022563 336.465744 23.7676779 323.601202 22.8003886 310.488203 23.242578 300.881206 24.6520566 292.820163 26.9459139 286.056616 30.2899709 279.789983 34.0762172 275.014091 38.2770161 271.508089 43.1134622 269.078734 48.0051819 268.0573 53.1179963 268.333363 57.9820792 269.934529 62.8185253 273.081649 67.7655187 278.050785 71.6899493 283.903324 75.3103746 291.798729 78.5162474 302.206309 80.1191838 311.509637 83.0210515 327.383267 85.0385404 336.134468 87.4153082 344.361149 90.3448127 351.870067 93.4125013 356.977234 95.9550901 359.378984 98.4700421 360.234779 101.206089 359.765472 103.748678 357.888243 105.572709 355.320856 108.916766 348.916191 111.873907 342.014613 114.913959 335.195853 118.368563 329.23289 121.215157 325.782101 124.642125 323.159501 128.78765 321.254665 132.794991 320.509295 136.636511 320.674933 140.450394 321.696366 145.81194 324.429391 150.841844 328.459913 155.236101 333.291018 158.856526 338.508611 162.670409 345.575827 166.788298 354.823942 170.381086 364.762215 173.448775 375.639102 175.604448 386.764446 176.5441 397.641334 176.378279 404.874188 175.41099 411.499703 173.697506 417.628304 171.04437 423.315205 167.396308 428.173916 162.642772 432.314863 157.032495 435.62762 150.344381 438.691921 142.440246 441.424946 130.058944 444.572066 116.2958 446.835784 102.173378 448.160887 87.9956817 448.547375 74.0390802 447.967642 61.3537731 446.504508 49.4422973 443.964727 40.1563208 440.707182" fill="url(#linearGradient-4)" id="路径"/>
              <path fill="url(#linearGradient-5)" id="形状结合" d="M648.498327,284.510663 L644.71208,289.9215 L641.589118,295.939676 L639.350534,302.344341 L638.217424,308.914643 L638.355608,315.567765 L640.013818,322.165674 L642.224765,326.058164 L644.988449,328.92922 L647.94559,331.579426 L650.571089,334.505696 L652.284573,338.039304 L652.83731,343.588173 L651.648926,349.689168 L649.576163,355.458887 L646.619022,360.952544 L640.428371,370.780391 L633.408615,379.945687 L625.615028,388.53125 L630.092195,393.086292 L633.159883,398.524736 L634.735183,404.570518 L634.707546,410.947577 L633.215157,417.186603 L630.755479,423.066748 L627.411422,428.477585 L623.210623,433.336296 L620.115297,436.234959 L616.384325,438.25022 L612.459894,438.691921 L608.535464,438.25022 L595.960704,435.517195 L583.77286,431.624705 L571.944295,426.57275 L566.555112,423.729299 L561.608118,420.250904 L557.545504,416.027138 L554.864731,410.91997 L554.035626,406.723811 L554.25672,403.769935 L555.251646,401.699462 L557.877146,399.049256 L561.41466,396.895963 L562.685955,396.178199 L566.30638,393.886875 L569.180611,390.822574 L571.253374,386.129501 L572.524668,380.939514 L574.127604,370.55954 L575.150167,359.075314 L575.896362,352.781075 L577.444025,347.121781 L579.212782,343.864236 L581.783008,341.352061 L585.292886,339.557651 L592.533736,338.260154 L599.74695,336.935051 L604.389938,334.754152 L608.176185,331.827883 L611.243873,328.128637 L614.974846,321.696366 L618.180719,314.518725 L618.899277,312.751921 L622.630249,304.663271 L624.785922,300.908813 L627.273238,297.568449 L630.313289,294.86303 L634.292994,292.461281 L642.611681,288.430759 L646.28738,286.387892 L648.498327,284.510663 Z M619.009824,341.73855 L615.195941,346.514442 L606.158696,359.323771 L600.935334,367.854122 L595.463241,378.013245 L590.626795,388.807313 L586.702364,400.346752 L584.795423,408.269764 L583.717586,416.192776 L583.468855,424.115788 L595.325057,424.115788 L596.319983,416.109957 L599.912771,395.929742 L602.925186,383.313657 L607.153622,369.234437 L612.432257,355.238037 L619.009824,341.73855 Z"/>
              <polygon points="125.250135 60.7614951 125.250135 60.7614951 124.559214 54.3016178 122.431178 48.4214731 119.059484 43.2314863 114.55468 38.9249014 109.165497 35.7777818 102.947209 33.9005525 96.4525532 33.5416704 90.3171759 34.7011355 84.6239879 37.21331 79.6769945 40.9677686 75.6972903 45.7712671 72.8783332 51.6238055 66.8258663 52.3415696 61.3537731 54.5500746 56.6278743 58.111289 52.9245385 62.9147875 50.658318 68.5464754 49.9673972 74.3990138 50.8517759 80.2515521 53.3114542 85.8004211 57.1529742 90.4934943 61.9894203 93.8890708 67.5444241 95.931938 73.569254 96.4564579 123.011551 96.4564579 127.626903 95.7663001 131.634244 94.1375276 135.171759 91.5149279 137.963079 88.1193514 139.78711 84.1992549 140.699126 79.6442132 140.367484 74.9787463 139.013279 70.8654057 136.664148 67.1661597 133.513549 64.1294653 129.727302 62.0037792" fill="url(#linearGradient-6)" id="路径"/>
              <polygon points="329.569254 33.7073083 329.569254 33.5416704 329.127065 28.130833 327.911044 23.0788777 325.921192 18.3305919 321.665119 11.9259273 316.054842 6.65312145 311.715859 3.89249014 306.934686 1.84962298 301.656051 0.496913635 296.266868 0 291.071143 0.35888207 286.041239 1.49074091 278.993846 4.61025428 272.858469 9.22050857 269.376228 13.0301798 266.557271 17.3643709 264.318687 22.305901 259.205873 22.8856335 254.507611 24.2383429 250.196265 26.364029 246.299471 29.2074792 243.010688 32.6030557 240.302278 36.5783648 238.284789 40.9677686 237.096405 45.6608418 236.681853 50.7956161 237.234589 55.902784 238.588794 60.5682509 240.744467 64.8748357 243.591061 68.7673259 246.990392 72.0524771 250.970096 74.7855021 255.364353 76.7731567 260.062615 77.9878345 265.203066 78.3743228 326.612113 78.3743228 332.360574 77.6565587 337.501026 75.5860852 341.950556 72.3285403 345.488071 68.1047744 347.892475 63.1080317 348.997949 57.4211312 348.611033 51.6514118 346.842276 46.378606 343.885134 41.7683517 339.877793 37.9862868 335.041347 35.2808681 329.403433 33.8453398" fill="url(#linearGradient-7)" id="路径"/>
            </g>
            <polygon points="1024 550.359458 999.596675 534.403009 973.839145 519.164324 946.672136 504.615797 918.040376 490.785034 889.159883 478.224161 859.118644 466.491478 827.833747 455.669804 795.305193 445.703925 762.693728 437.007936 729.114974 429.360987 694.541293 422.735472 658.917413 417.186603 623.348807 412.880018 587.034006 409.760505 549.945374 407.883276 512 407.193118 474.054626 407.883276 436.965994 409.760505 400.623556 412.880018 365.082587 417.186603 329.458707 422.735472 294.885026 429.360987 261.306272 437.007936 228.694807 445.703925 196.166253 455.669804 164.881356 466.491478 134.840117 478.224161 105.931987 490.785034 77.3278635 504.615797 50.160855 519.164324 24.4033251 534.403009 0 550.359458" fill-rule="nonzero" fill="url(#linearGradient-8)" id="路径"/>
          </g>
          <polygon points="377.850804 295.277125 624.039728 295.277125 624.039728 305.850343 377.850804 305.850343" fill-rule="nonzero" fill="var(--el-color-primary)" id="矩形"/>
          <polygon points="377.850804 371.111667 624.039728 371.111667 624.039728 381.684885 377.850804 381.684885" fill-rule="nonzero" fill="var(--el-color-primary)" id="矩形"/>
          <polygon points="398.550793 446.946209 413.695779 446.946209 413.695779 455.310922 398.550793 455.310922" fill-rule="nonzero" fill="var(--el-color-primary)" id="矩形"/>
          <polygon points="383.157077 154.153652 623.044802 154.153652 628.047069 154.871416 632.330778 156.63822 636.061751 159.536883 638.963619 163.263736 640.732376 167.542714 641.450934 172.51185 641.450934 219.414976 364.750945 219.414976 364.750945 172.51185 365.386592 167.680746 367.182986 163.401767 370.140127 159.509277 374.036921 156.555401 378.32063 154.788597" fill-rule="nonzero" fill="var(--el-color-primary-light-3)" id="路径"/>
          <polygon points="421.212998 186.811921 420.743172 190.152284 419.527151 192.995735 417.592573 195.507909 415.105257 197.440351 412.231027 198.627423 408.88697 199.09673 405.542913 198.627423 402.668682 197.440351 400.181367 195.507909 398.246788 192.995735 397.058404 190.152284 396.560941 186.811921 397.058404 183.471557 398.246788 180.6005 400.181367 178.115932 402.668682 176.155884 405.542913 174.968812 408.88697 174.499505 412.231027 174.968812 415.105257 176.155884 417.592573 178.115932 419.527151 180.6005 420.743172 183.471557" fill-rule="nonzero" fill="#FFFFFF" id="椭圆形"/>
          <polygon points="489.448343 188.551118 488.923243 191.063293 487.569038 193.078554 485.551549 194.431263 483.036597 194.955783 480.521645 194.431263 478.504156 193.078554 477.122315 191.063293 476.624852 188.551118 477.122315 186.038944 478.504156 184.023683 480.521645 182.643367 483.036597 182.146454 485.551549 182.643367 487.569038 184.023683 488.923243 186.038944" fill-rule="nonzero" fill="#FFFFFF" id="椭圆形"/>
          <polygon points="511.613084 188.551118 511.115621 191.063293 509.73378 193.078554 507.716291 194.431263 505.201339 194.955783 502.686387 194.431263 500.668898 193.078554 499.314693 191.063293 498.789593 188.551118 499.314693 186.038944 500.668898 184.023683 502.686387 182.643367 505.201339 182.146454 507.716291 182.643367 509.73378 184.023683 511.115621 186.038944" fill-rule="nonzero" fill="#FFFFFF" id="椭圆形"/>
          <polygon points="527.587175 182.146454 616.411962 182.146454 618.291266 182.505336 619.811292 183.526769 620.833855 185.045117 621.220771 186.949952 621.220771 190.097072 620.833855 192.001907 619.811292 193.520255 618.291266 194.541688 616.411962 194.90057 527.587175 194.90057 525.70787 194.541688 524.187844 193.520255 523.165281 192.001907 522.778366 190.097072 522.778366 186.949952 523.165281 185.045117 524.187844 183.526769 525.70787 182.505336" fill-rule="nonzero" fill="#FFFFFF" id="矩形"/>
          <polygon points="364.778581 381.712491 641.450934 381.712491 641.450934 428.615617 640.732376 433.61236 638.963619 437.891338 636.061751 441.590584 632.330778 444.489247 628.047069 446.283657 623.044802 446.973815 383.157077 446.973815 378.182446 446.283657 373.898737 444.489247 370.167764 441.590584 367.265897 437.891338 365.469502 433.61236 364.778581 428.615617" fill-rule="nonzero" fill="var(--el-color-primary-light-3)" id="路径"/>
          <polygon points="421.212998 414.343153 420.743172 417.683517 419.527151 420.526967 417.592573 423.039142 415.105257 424.971584 412.231027 426.158655 408.88697 426.627962 405.542913 426.158655 402.668682 424.971584 400.181367 423.039142 398.246788 420.526967 397.058404 417.683517 396.560941 414.343153 397.058404 411.002789 398.246788 408.131733 400.181367 405.647164 402.668682 403.687116 405.542913 402.500045 408.88697 402.030737 412.231027 402.500045 415.105257 403.687116 417.592573 405.647164 419.527151 408.131733 420.743172 411.002789" fill-rule="nonzero" fill="#FFFFFF" id="椭圆形"/>
          <polygon points="489.448343 412.548743 488.923243 415.060917 487.569038 417.103784 485.551549 418.456494 483.036597 418.981014 480.521645 418.456494 478.504156 417.103784 477.122315 415.060917 476.624852 412.548743 477.122315 410.036568 478.504156 408.021307 480.521645 406.668598 483.036597 406.144078 485.551549 406.668598 487.569038 408.021307 488.923243 410.036568" fill-rule="nonzero" fill="#FFFFFF" id="椭圆形"/>
          <polygon points="511.613084 412.548743 511.115621 415.060917 509.73378 417.103784 507.716291 418.456494 505.201339 418.981014 502.686387 418.456494 500.668898 417.103784 499.314693 415.060917 498.789593 412.548743 499.314693 410.036568 500.668898 408.021307 502.686387 406.668598 505.201339 406.144078 507.716291 406.668598 509.73378 408.021307 511.115621 410.036568" fill-rule="nonzero" fill="#FFFFFF" id="椭圆形"/>
          <polygon points="527.587175 406.199291 616.411962 406.199291 618.291266 406.558173 619.811292 407.607213 620.833855 409.097954 621.220771 411.002789 621.220771 414.177515 620.833855 416.054744 619.811292 417.573092 618.291266 418.594525 616.411962 418.981014 527.587175 418.981014 525.70787 418.594525 524.187844 417.573092 523.165281 416.054744 522.778366 414.177515 522.778366 411.002789 523.165281 409.097954 524.187844 407.607213 525.70787 406.558173" fill-rule="nonzero" fill="#FFFFFF" id="矩形"/>
          <polygon points="364.778581 229.988194 641.478571 229.988194 641.478571 295.249518 364.778581 295.249518" fill-rule="nonzero" fill="var(--el-color-primary-light-3)" id="矩形"/>
          <polygon points="421.212998 262.646463 420.743172 265.986827 419.527151 268.830277 417.592573 271.342451 415.105257 273.274893 412.231027 274.461965 408.88697 274.931272 405.542913 274.461965 402.668682 273.274893 400.181367 271.342451 398.246788 268.830277 397.058404 265.986827 396.560941 262.646463 397.058404 259.306099 398.246788 256.435042 400.181367 253.922868 402.668682 251.990426 405.542913 250.803354 408.88697 250.334047 412.231027 250.803354 415.105257 251.990426 417.592573 253.922868 419.527151 256.435042 420.743172 259.306099" fill-rule="nonzero" fill="#FFFFFF" id="椭圆形"/>
          <polygon points="489.448343 264.38566 488.923243 266.897835 487.569038 268.913096 485.551549 270.265805 483.036597 270.790325 480.521645 270.265805 478.504156 268.913096 477.122315 266.897835 476.624852 264.38566 477.122315 261.873486 478.504156 259.830619 480.521645 258.477909 483.036597 257.953389 485.551549 258.477909 487.569038 259.830619 488.923243 261.873486" fill-rule="nonzero" fill="#FFFFFF" id="椭圆形"/>
          <polygon points="511.613084 264.38566 511.115621 266.897835 509.73378 268.913096 507.716291 270.265805 505.201339 270.790325 502.686387 270.265805 500.668898 268.913096 499.314693 266.897835 498.789593 264.38566 499.314693 261.873486 500.668898 259.830619 502.686387 258.477909 505.201339 257.953389 507.716291 258.477909 509.73378 259.830619 511.115621 261.873486" fill-rule="nonzero" fill="#FFFFFF" id="椭圆形"/>
          <polygon points="527.587175 257.953389 616.411962 257.953389 618.291266 258.339878 619.811292 259.361311 620.833855 260.879659 621.220771 262.756888 621.220771 265.931614 620.833855 267.83645 619.811292 269.32719 618.291266 270.37623 616.411962 270.735112 527.587175 270.735112 525.70787 270.37623 524.187844 269.32719 523.165281 267.83645 522.778366 265.931614 522.778366 262.756888 523.165281 260.879659 524.187844 259.361311 525.70787 258.339878" fill-rule="nonzero" fill="#FFFFFF" id="矩形"/>
          <polygon points="377.850804 219.414976 624.039728 219.414976 624.039728 229.988194 377.850804 229.988194" fill-rule="nonzero" fill="var(--el-color-primary)" id="矩形"/>
          <polygon points="711.759041 308.583368 707.641153 306.209225 702.998165 305.408642 702.058512 305.408642 700.538486 305.408642 696.641693 305.408642 683.845838 304.773696 671.160531 302.786042 664.804059 300.660356 658.281766 297.319992 646.81248 289.590224 639.488719 284.234599 636.089388 282.826678 632.441326 282.329764 628.765627 282.826678 625.366296 284.234599 620.474576 288.485972 615.63813 292.24043 609.115837 296.602228 602.013171 300.301474 594.606499 302.786042 581.838281 304.773696 568.93188 305.408642 563.376876 305.408642 562.603044 305.408642 557.932419 306.181618 553.869805 308.583368 551.658858 310.985117 550.304653 313.718142 549.779553 316.94808 549.779553 345.962316 550.553384 363.713175 552.5156 378.95186 555.500378 392.009646 559.75645 404.763762 564.592896 415.613043 569.899169 424.778339 576.17273 433.391509 582.446292 440.56915 588.775127 446.449295 598.890208 454.041031 607.927453 459.286231 616.715967 463.26154 623.100076 465.470045 630.175105 467.209243 632.386052 467.209243 634.652272 467.209243 641.810213 465.470045 648.249595 463.26154 657.121019 459.313837 666.213538 454.096244 676.383893 446.504508 682.740365 440.596757 689.0692 433.419115 695.342762 424.805946 700.704307 415.64065 705.540754 404.791369 709.824463 392.037252 712.836878 378.979466 714.799093 363.713175 715.600561 345.962316 715.600561 316.94808 715.075462 313.773354 713.831804 311.012723" fill-rule="nonzero" fill="var(--el-color-primary)" id="路径"/>
          <path fill-rule="nonzero" fill="#FFFFFF" id="形状" d="M659.249055,352.836287 L653.887509,352.836287 L653.887509,345.023701 L652.864947,339.060737 L650.515816,333.843144 L647.005938,329.398528 L642.52877,325.975345 L637.333045,323.794446 L631.501673,322.993863 L625.670301,323.794446 L620.474576,325.975345 L615.997409,329.398528 L612.487531,333.843144 L610.1384,339.060737 L609.115837,345.023701 L609.115837,352.836287 L603.754291,352.836287 L600.023319,353.636871 L597.010904,355.73495 L594.965778,358.799251 L594.191946,362.664135 L594.191946,404.294455 L594.965778,408.131733 L597.010904,411.22364 L600.023319,413.294113 L603.754291,414.094696 L659.249055,414.094696 L662.980028,413.294113 L665.992443,411.22364 L668.037569,408.131733 L668.8114,404.294455 L668.8114,362.691741 L668.037569,358.826857 L666.02008,355.73495 L663.007665,353.636871 L659.249055,352.836287 L659.249055,352.836287 Z M635.28792,385.16328 L635.28792,393.77645 L635.011551,395.239584 L634.210083,396.426656 L633.049336,397.227239 L631.584584,397.530908 L630.147468,397.227239 L628.986721,396.426656 L628.185253,395.239584 L627.881248,393.77645 L627.881248,385.16328 L625.476843,382.623499 L624.592465,379.200316 L625.283386,376.605323 L626.775775,374.562456 L628.903811,373.18214 L631.501673,372.685227 L634.099536,373.18214 L636.227572,374.562456 L637.719961,376.605323 L638.410882,379.200316 L637.609414,382.595893 L635.28792,385.16328 L635.28792,385.16328 Z M646.674296,353.360807 L616.329051,353.360807 L616.329051,345.244551 L616.68833,340.91036 L618.097808,336.935051 L620.446939,333.484262 L623.680449,330.778843 L627.494332,329.067252 L631.501673,328.515126 L635.509014,329.067252 L639.322898,330.778843 L642.556407,333.484262 L644.905538,336.935051 L646.315017,340.91036 L646.674296,345.244551 L646.674296,353.360807 Z"/>
        </g>
      </g>
    </g>
  </g>
</svg>