<svg xmlns:xlink="http://www.w3.org/1999/xlink" xmlns="http://www.w3.org/2000/svg" version="1.1" viewBox="0 0 1024 1024" height="1024px" width="1024px">
  <title>404</title>
  <defs>
    <rect rx="22.1405405" height="1024" width="1024" y="0" x="0" id="path-1"/>
    <linearGradient id="linearGradient-3" y2="64.8840762%" x2="50%" y1="-33.7184979%" x1="115.913479%">
      <stop offset="0%" stop-color="var(--el-color-primary)"/>
      <stop offset="100%" stop-opacity="0" stop-color="#FFFFFF"/>
    </linearGradient>
    <linearGradient id="linearGradient-4" y2="100%" x2="70.4980572%" y1="-20.569195%" x1="10.5031837%">
      <stop offset="0%" stop-color="var(--el-color-primary)"/>
      <stop offset="100%" stop-opacity="0" stop-color="#FFFFFF"/>
    </linearGradient>
    <linearGradient id="linearGradient-5" y2="104.73608%" x2="38.801584%" y1="-97.78046%" x1="100.191761%">
      <stop offset="0%" stop-color="var(--el-color-primary)"/>
      <stop offset="100%" stop-color="#FFFFFF"/>
    </linearGradient>
    <linearGradient id="linearGradient-6" y2="100%" x2="50%" y1="-27.9013949%" x1="50%">
      <stop offset="0%" stop-color="var(--el-color-primary)"/>
      <stop offset="100%" stop-opacity="0" stop-color="#FFFFFF"/>
    </linearGradient>
    <linearGradient id="linearGradient-7" y2="100%" x2="50%" y1="-27.9013949%" x1="50%">
      <stop offset="0%" stop-color="var(--el-color-primary)"/>
      <stop offset="100%" stop-opacity="0" stop-color="#FFFFFF"/>
    </linearGradient>
    <linearGradient id="linearGradient-8" y2="100%" x2="50%" y1="-221.1569%" x1="50%">
      <stop offset="0%" stop-color="#D2D2D2"/>
      <stop offset="100%" stop-opacity="0" stop-color="#D2D2D2"/>
    </linearGradient>
    <linearGradient id="linearGradient-9" y2="99.999994%" x2="49.999997%" y1="0%" x1="49.999997%">
      <stop offset="0%" stop-color="#D1D1D1"/>
      <stop offset="100%" stop-color="#EAEAEA"/>
    </linearGradient>
    <linearGradient id="linearGradient-10" y2="54.1949091%" x2="47.684595%" y1="48.5229579%" x1="49.999997%">
      <stop offset="0%" stop-color="#FFFFFF"/>
      <stop offset="100%" stop-color="#F7F7F7"/>
    </linearGradient>
    <linearGradient id="linearGradient-11" y2="62.0729155%" x2="50%" y1="-4.69024947%" x1="22.4972103%">
      <stop offset="0%" stop-color="var(--el-color-primary-light-3)"/>
      <stop offset="100%" stop-opacity="0" stop-color="var(--el-color-primary-light-3)"/>
    </linearGradient>
  </defs>
  <g fill-rule="evenodd" fill="none" stroke-width="1" stroke="none" id="404">
    <g>
      <mask fill="white" id="mask-2">
        <use xlink:href="#path-1"/>
      </mask>
      <g id="蒙版"/>
      <g mask="url(#mask-2)" id="编组-3">
        <g transform="translate(0, 238.0108)">
          <g id="编组-2">
            <g fill-rule="nonzero" transform="translate(162.5599, 0)" id="编组">
              <polygon points="592.450826 498.100707 589.3555 489.432325 587.255101 479.632083 586.398359 469.500567 586.868185 459.341443 588.001295 452.660716 589.852963 446.421689 592.367915 440.541544 595.711972 435.158313 599.857498 430.520452 604.887401 426.517537 606.932527 428.091097 608.342006 430.133964 609.060564 432.508107 609.032927 435.075494 608.286732 439.989418 607.070711 451.308006 606.794343 463.813666 607.540538 469.25211 608.894743 472.371623 610.248947 473.448269 612.072979 473.393057 614.864299 471.791891 619.037461 467.319668 626.084854 456.884481 638.963619 434.136879 651.870021 411.527309 659.000324 400.705634 667.015006 390.325661 673.758394 383.451689 680.225413 378.42734 686.471338 374.921338 693.159452 372.491982 699.156645 371.470549 704.628738 371.691399 709.8521 373.126928 714.191083 375.639102 717.783871 379.283135 720.32646 383.755358 721.818849 389.331833 722.150491 396.343837 721.155565 403.328234 718.530066 411.610128 713.942351 421.493188 708.884811 429.471413 700.400302 443.19175 696.006046 451.031943 692.219799 458.706498 689.345568 466.270628 688.212458 472.09556 688.46119 475.601562 689.760121 477.920492 692.109252 479.438839 695.232214 479.714902 698.299903 479.052351 705.070927 476.540176 711.924862 473.393057 718.778797 470.383969 725.384001 468.258282 729.805894 467.595731 734.144877 467.8994 738.511497 469.224503 741.966102 471.377796 744.702148 474.055608 746.857821 477.368366 748.985858 483.000054 750.008421 489.349506 750.036057 495.864596 749.206952 502.158835 746.526179 511.40695 742.104286 520.737884 736.21764 529.406266 728.866242 537.16364 723.283601 541.608256 717.203498 545.25229 710.570657 548.123346 703.606175 550.000575 696.199503 550.745946 688.212458 550.359458 675.554788 548.09574 661.238907 544.396494 646.923027 539.537783 632.855878 533.464394 623.76336 528.688502 615.582857 523.526121 608.203822 517.977252 601.543344 511.683013 596.375256 505.140317 592.533736 498.349164" fill="url(#linearGradient-3)" id="路径"/>
              <polygon points="39.9075893 440.458725 31.7823599 436.096928 23.6571305 430.216783 16.222822 423.287598 9.75580266 415.447406 4.58771456 406.834236 1.21602073 397.834578 0.0552736694 391.623157 0 385.411737 1.05019972 379.117498 3.59278851 378.896647 5.99719313 379.421167 8.12522941 380.635845 9.83871316 382.54068 12.6023966 386.654021 19.2905106 395.87453 27.4986505 405.315889 31.6994494 408.849497 34.7947749 410.257419 36.5082587 410.146993 37.8348267 408.877103 38.8297528 405.840409 38.9403001 399.711807 37.1439059 387.26136 31.3401706 361.863552 25.7022563 336.465744 23.7676779 323.601202 22.8003886 310.488203 23.242578 300.881206 24.6520566 292.820163 26.9459139 286.056616 30.2899709 279.789983 34.0762172 275.014091 38.2770161 271.508089 43.1134622 269.078734 48.0051819 268.0573 53.1179963 268.333363 57.9820792 269.934529 62.8185253 273.081649 67.7655187 278.050785 71.6899493 283.903324 75.3103746 291.798729 78.5162474 302.206309 80.1191838 311.509637 83.0210515 327.383267 85.0385404 336.134468 87.4153082 344.361149 90.3448127 351.870067 93.4125013 356.977234 95.9550901 359.378984 98.4700421 360.234779 101.206089 359.765472 103.748678 357.888243 105.572709 355.320856 108.916766 348.916191 111.873907 342.014613 114.913959 335.195853 118.368563 329.23289 121.215157 325.782101 124.642125 323.159501 128.78765 321.254665 132.794991 320.509295 136.636511 320.674933 140.450394 321.696366 145.81194 324.429391 150.841844 328.459913 155.236101 333.291018 158.856526 338.508611 162.670409 345.575827 166.788298 354.823942 170.381086 364.762215 173.448775 375.639102 175.604448 386.764446 176.5441 397.641334 176.378279 404.874188 175.41099 411.499703 173.697506 417.628304 171.04437 423.315205 167.396308 428.173916 162.642772 432.314863 157.032495 435.62762 150.344381 438.691921 142.440246 441.424946 130.058944 444.572066 116.2958 446.835784 102.173378 448.160887 87.9956817 448.547375 74.0390802 447.967642 61.3537731 446.504508 49.4422973 443.964727 40.1563208 440.707182" fill="url(#linearGradient-4)" id="路径"/>
              <path fill="url(#linearGradient-5)" id="形状结合" d="M648.498327,284.510663 L644.71208,289.9215 L641.589118,295.939676 L639.350534,302.344341 L638.217424,308.914643 L638.355608,315.567765 L640.013818,322.165674 L642.224765,326.058164 L644.988449,328.92922 L647.94559,331.579426 L650.571089,334.505696 L652.284573,338.039304 L652.83731,343.588173 L651.648926,349.689168 L649.576163,355.458887 L646.619022,360.952544 L640.428371,370.780391 L633.408615,379.945687 L625.615028,388.53125 L630.092195,393.086292 L633.159883,398.524736 L634.735183,404.570518 L634.707546,410.947577 L633.215157,417.186603 L630.755479,423.066748 L627.411422,428.477585 L623.210623,433.336296 L620.115297,436.234959 L616.384325,438.25022 L612.459894,438.691921 L608.535464,438.25022 L595.960704,435.517195 L583.77286,431.624705 L571.944295,426.57275 L566.555112,423.729299 L561.608118,420.250904 L557.545504,416.027138 L554.864731,410.91997 L554.035626,406.723811 L554.25672,403.769935 L555.251646,401.699462 L557.877146,399.049256 L561.41466,396.895963 L562.685955,396.178199 L566.30638,393.886875 L569.180611,390.822574 L571.253374,386.129501 L572.524668,380.939514 L574.127604,370.55954 L575.150167,359.075314 L575.896362,352.781075 L577.444025,347.121781 L579.212782,343.864236 L581.783008,341.352061 L585.292886,339.557651 L592.533736,338.260154 L599.74695,336.935051 L604.389938,334.754152 L608.176185,331.827883 L611.243873,328.128637 L614.974846,321.696366 L618.180719,314.518725 L618.899277,312.751921 L622.630249,304.663271 L624.785922,300.908813 L627.273238,297.568449 L630.313289,294.86303 L634.292994,292.461281 L642.611681,288.430759 L646.28738,286.387892 L648.498327,284.510663 Z M619.009824,341.73855 L615.195941,346.514442 L606.158696,359.323771 L600.935334,367.854122 L595.463241,378.013245 L590.626795,388.807313 L586.702364,400.346752 L584.795423,408.269764 L583.717586,416.192776 L583.468855,424.115788 L595.325057,424.115788 L596.319983,416.109957 L599.912771,395.929742 L602.925186,383.313657 L607.153622,369.234437 L612.432257,355.238037 L619.009824,341.73855 Z"/>
              <polygon points="125.250135 60.7614951 125.250135 60.7614951 124.559214 54.3016178 122.431178 48.4214731 119.059484 43.2314863 114.55468 38.9249014 109.165497 35.7777818 102.947209 33.9005525 96.4525532 33.5416704 90.3171759 34.7011355 84.6239879 37.21331 79.6769945 40.9677686 75.6972903 45.7712671 72.8783332 51.6238055 66.8258663 52.3415696 61.3537731 54.5500746 56.6278743 58.111289 52.9245385 62.9147875 50.658318 68.5464754 49.9673972 74.3990138 50.8517759 80.2515521 53.3114542 85.8004211 57.1529742 90.4934943 61.9894203 93.8890708 67.5444241 95.931938 73.569254 96.4564579 123.011551 96.4564579 127.626903 95.7663001 131.634244 94.1375276 135.171759 91.5149279 137.963079 88.1193514 139.78711 84.1992549 140.699126 79.6442132 140.367484 74.9787463 139.013279 70.8654057 136.664148 67.1661597 133.513549 64.1294653 129.727302 62.0037792" fill="url(#linearGradient-6)" id="路径"/>
              <polygon points="329.569254 33.7073083 329.569254 33.5416704 329.127065 28.130833 327.911044 23.0788777 325.921192 18.3305919 321.665119 11.9259273 316.054842 6.65312145 311.715859 3.89249014 306.934686 1.84962298 301.656051 0.496913635 296.266868 0 291.071143 0.35888207 286.041239 1.49074091 278.993846 4.61025428 272.858469 9.22050857 269.376228 13.0301798 266.557271 17.3643709 264.318687 22.305901 259.205873 22.8856335 254.507611 24.2383429 250.196265 26.364029 246.299471 29.2074792 243.010688 32.6030557 240.302278 36.5783648 238.284789 40.9677686 237.096405 45.6608418 236.681853 50.7956161 237.234589 55.902784 238.588794 60.5682509 240.744467 64.8748357 243.591061 68.7673259 246.990392 72.0524771 250.970096 74.7855021 255.364353 76.7731567 260.062615 77.9878345 265.203066 78.3743228 326.612113 78.3743228 332.360574 77.6565587 337.501026 75.5860852 341.950556 72.3285403 345.488071 68.1047744 347.892475 63.1080317 348.997949 57.4211312 348.611033 51.6514118 346.842276 46.378606 343.885134 41.7683517 339.877793 37.9862868 335.041347 35.2808681 329.403433 33.8453398" fill="url(#linearGradient-7)" id="路径"/>
            </g>
            <polygon points="1024 550.359458 999.596675 534.403009 973.839145 519.164324 946.672136 504.615797 918.040376 490.785034 889.159883 478.224161 859.118644 466.491478 827.833747 455.669804 795.305193 445.703925 762.693728 437.007936 729.114974 429.360987 694.541293 422.735472 658.917413 417.186603 623.348807 412.880018 587.034006 409.760505 549.945374 407.883276 512 407.193118 474.054626 407.883276 436.965994 409.760505 400.623556 412.880018 365.082587 417.186603 329.458707 422.735472 294.885026 429.360987 261.306272 437.007936 228.694807 445.703925 196.166253 455.669804 164.881356 466.491478 134.840117 478.224161 105.931987 490.785034 77.3278635 504.615797 50.160855 519.164324 24.4033251 534.403009 0 550.359458" fill-rule="nonzero" fill="url(#linearGradient-8)" id="路径"/>
          </g>
          <g transform="translate(325.9488, 111.1706)" id="编组">
            <polygon points="166.180287 0.441701009 169.662528 0 172.840764 0.441701009 175.853179 1.71159141 178.478679 3.69924595 180.440894 6.23902676 181.822736 9.46896539 182.209651 13.9411881 181.104178 18.0545288 178.699773 21.5881368 175.189895 24.1831303 179.888157 41.6855328 174.941164 43.0106358 170.242902 25.5082333 165.903919 25.0113197 162.062399 23.1616967 159.049984 20.1250022 157.143042 16.0668742 156.700853 12.5884788 157.143042 9.38614645 158.414337 6.37705832 160.404189 3.78206489 162.946778 1.79441035" fill="url(#linearGradient-9)" id="形状结合"/>
            <polygon points="301.600777 91.0732269 303.424808 100.128098 304.143366 109.100149 303.839361 117.961776 302.457519 126.851009 299.141099 138.362841 294.221742 149.460579 287.588902 160.227041 279.684767 170.110101 270.398791 179.220185 259.620425 187.557291 247.957681 194.624507 235.161827 200.477046 221.094678 205.142512 206.58534 208.123994 192.545827 209.449097 178.920868 209.145428 165.406456 207.323411 152.804059 204.065866 141.003131 199.483218 129.893123 193.465042 120.05441 186.287401 111.431718 177.9779 105.793803 170.993503 101.067905 163.45698 97.2263845 155.340724 94.2692432 146.561916 92.4452121 137.479439 91.6990176 128.534994 92.0306596 119.673367 93.3848645 110.784134 96.7289215 99.2723018 101.648278 88.174564 108.253482 77.4081019 116.185253 67.5250418 125.47123 58.4149585 136.249595 50.0778519 147.912339 43.0106358 160.708194 37.1580974 174.775343 32.4926305 189.284681 29.4835424 203.296556 28.1860457 216.949153 28.4897151 230.435928 30.3117318 243.038325 33.5692767 254.86689 38.1519247 265.976897 44.1701009 275.787974 51.320136 284.438303 59.6572426 290.076217 66.6416398 294.802116 74.1781632 298.615999 82.2944193" fill="var(--el-color-primary-light-3)" id="椭圆形"/>
            <polygon points="425.413797 118.734753 426.298176 124.780535 425.91126 131.102381 424.170139 137.783109 420.853719 145.015963 415.105257 153.822376 407.007665 163.236129 396.174026 173.395252 384.538918 182.560548 370.748138 192.001907 354.525316 201.691723 337.887941 210.525744 319.454173 219.221732 299.058188 227.807296 278.413473 235.537063 256.414553 242.769917 232.978517 249.533464 209.321386 255.386002 186.631545 260.079076 164.881356 263.723109 142.965346 266.48374 122.624636 268.140119 103.803951 268.80267 84.9003563 268.499001 68.2077081 267.229111 53.5601857 265.103425 39.0784843 261.707848 27.3604664 257.594507 17.9639426 252.846221 11.4969232 248.235967 6.63284033 243.322043 3.15059916 238.049238 0.884378711 232.362337 0 226.288948 0.386915686 219.994709 2.12803627 213.286375 5.4168196 206.081127 11.1929181 197.274713 19.2628738 187.833354 30.1241498 177.701837 41.7592573 168.536541 55.5500378 159.095182 71.7728598 149.37776 88.4102343 140.571346 106.844003 131.847751 127.21235 123.289794 147.884703 115.560027 169.883623 108.299566 193.292022 101.563626 216.949153 95.7110874 239.638994 90.9904079 261.389183 87.3739809 283.33283 84.6133496 303.67354 82.9569708 322.494224 82.266813 341.397819 82.5704824 358.062831 83.8679791 372.73799 85.9936652 387.192054 89.3616354 398.910072 93.5025824 408.306596 98.2508683 414.801252 102.833516 419.665335 107.775046 423.147576 113.047852" fill="var(--el-color-primary)" id="椭圆形"/>
            <path fill="url(#linearGradient-10)" id="形状结合" d="M373.926374,146.203034 L373.981647,144.187773 L374.838389,142.172512 L376.745331,140.074433 L380.531577,137.617471 L385.83785,135.850667 L391.392853,135.326147 L395.842384,136.016305 L398.440246,137.17577 L400.043183,138.638904 L400.927561,140.460921 L400.872288,142.476182 L399.987909,144.491443 L398.080967,146.617129 L394.294721,149.046484 L389.016086,150.813288 L383.461082,151.337808 L379.011551,150.64765 L376.413689,149.488185 L374.783116,148.025051 L373.926374,146.203034 Z M58.3137213,217.786204 L63.6752672,216.295463 L68.1800713,216.212644 L70.9437547,216.902802 L72.7954226,218.089873 L73.9561697,219.718646 L74.2601749,221.7063 L73.7627119,223.831986 L72.242686,226.261342 L68.9539026,229.325643 L64.034546,231.975849 L58.6730001,233.46659 L54.168196,233.549409 L51.4045126,232.859251 L49.5528447,231.672179 L48.3920976,230.043407 L48.0880924,228.055752 L48.5855554,225.930066 L50.1055813,223.500711 L53.3943647,220.464016 L58.3137213,217.786204 Z M256.276368,138.97018 L256.359279,135.60221 L257.824031,132.261846 L260.97463,128.728238 L264.954334,125.912394 L269.928965,123.538251 L276.119616,121.688628 L282.503724,120.860439 L288.031091,120.99847 L292.784627,121.992298 L297.12361,123.924739 L299.804383,126.381701 L301.269135,129.418396 L301.158588,132.75876 L299.721473,136.099123 L296.543237,139.632732 L292.591169,142.476182 L287.616539,144.822718 L281.425888,146.672341 L275.014142,147.500531 L269.514412,147.362499 L264.73324,146.396278 L260.421894,144.463836 L257.713484,141.979268 L256.276368,138.97018 Z M145.148656,151.47584 L151.422217,149.985099 L156.921948,149.543398 L161.758394,150.012705 L166.290835,151.47584 L169.220339,153.656739 L170.96146,156.500189 L171.237828,159.840553 L170.132355,163.318948 L167.368671,167.183832 L163.720609,170.386164 L159.022347,173.257221 L153.052791,175.741789 L146.751592,177.23253 L141.279499,177.674231 L136.415416,177.204924 L131.910612,175.741789 L128.981108,173.56089 L127.239987,170.71744 L126.963619,167.34947 L128.069092,163.871074 L130.832776,160.033797 L134.480838,156.803858 L139.1791,153.932802 L145.148656,151.47584 Z"/>
            <polygon points="332.305301 167.432289 332.332937 171.02111 330.56418 175.189663 326.252834 180.37965 321.029472 184.879479 313.843895 189.903828 304.28155 195.507909 288.998381 203.044433 269.873691 210.939838 249.45007 218.089873 226.373313 224.881026 203.020188 230.512714 181.739825 234.543236 161.205657 237.248655 144.181367 238.352907 133.126633 238.270088 124.393393 237.497111 117.622369 236.227221 111.293533 233.880684 107.645471 231.147659 105.904351 228.028146 105.876714 224.466932 107.645471 220.270772 111.956817 215.108392 117.180179 210.608562 124.338119 205.584214 133.900464 199.980132 149.183634 192.443608 168.33596 184.548203 188.759581 177.398168 211.808701 170.607015 235.189463 164.975327 256.469826 160.944805 276.976358 158.239387 294.000648 157.135134 305.083018 157.217953 313.816258 157.963323 320.587283 159.26082 326.916118 161.607357 330.536543 164.340382" fill="#FFFFFF" id="椭圆形复制-6"/>
            <polygon points="141.915146 205.970702 65.5269351 430.216783 105.73853 429.499019 145.701393 427.042057 185.443161 422.845897 224.991471 416.91054 264.401598 409.208379 303.701177 399.739413 342.917845 388.476038 382.106877 375.390645 421.295908 360.45563 460.48494 343.588173 449.540754 331.827883 289.330023 166.383249 213.688006 186.701495" fill="url(#linearGradient-11)" id="路径-2"/>
            <g fill-rule="nonzero" fill="var(--el-color-primary)" transform="translate(157.1387, 246.6354)">
              <polygon points="48.4473713 51.3614761 30.1241498 105.552669 39.0232106 104.972936 37.8071899 87.1944705 65.4716614 85.4000602 66.6600453 103.178526 77.1344057 102.543581 78.6267948 124.269749 68.1524344 124.9323 69.3408183 142.848798 41.7039836 144.615602 40.5155997 126.726711 1.32656807 129.238885 0 109.472765 19.898521 53.1834928" id="路径"/>
              <path id="形状" d="M153.079979,47.5932837 L152.389058,59.3259668 L150.482117,68.9053574 L147.497339,76.6627314 L143.572908,82.9293645 L139.482657,87.2635556 L134.756758,90.6315258 L129.339938,93.116094 L123.094014,94.6896539 L115.853163,95.2693864 L108.529402,94.6896539 L102.200567,93.1437003 L96.7284734,90.6867385 L91.9749378,87.3187683 L87.8294126,82.9845771 L83.8497084,76.7455504 L80.7820197,68.9881764 L78.7645308,59.4363921 L77.9630626,47.703709 L78.6263466,35.9434196 L80.560925,26.3916353 L83.5180664,18.6342613 L87.4424969,12.3676283 L91.5327484,8.03343711 L96.2586472,4.66546691 L101.703104,2.18089873 L108.004302,0.607338888 L115.328063,0 L122.596551,0.579732575 L128.842475,2.15329242 L134.286932,4.61025428 L139.040467,7.97822448 L143.185993,12.3124156 L147.193334,18.5514424 L150.233385,26.3088164 L152.278511,35.8606007 L153.079979,47.5932837 Z M107.009376,47.6484964 L107.589749,61.1755898 L108.943954,68.4084438 L110.712712,72.0524771 L112.923658,73.9021001 L115.770252,74.4542264 L118.506299,73.9021001 L120.689609,72.0248708 L122.403093,68.3808375 L123.674387,61.1203772 L124.116577,47.5932837 L123.508566,34.0109777 L122.181998,26.7781237 L120.440878,23.1616967 L118.257568,21.33968 L115.493884,20.8151601 L112.64729,21.3672863 L110.436343,23.2169093 L108.695223,26.8333363 L107.423928,34.0661903 L107.009376,47.6484964 L107.009376,47.6484964 Z M196.46981,22.5819641 L189.007864,79.975489 L197.713467,77.6565587 L193.042842,60.2645815 L220.016393,53.0317274 L224.659381,70.451311 L234.912647,67.6906797 L240.633472,89.0027534 L230.380206,91.7357784 L235.078468,109.265787 L208.104917,116.498641 L203.406655,98.9410261 L165.157276,109.182968 L159.961551,89.8309428 L168.61188,30.0356686 L196.46981,22.5819641 L196.46981,22.5819641 Z"/>
            </g>
          </g>
        </g>
      </g>
    </g>
  </g>
</svg>