<svg xmlns:xlink="http://www.w3.org/1999/xlink" xmlns="http://www.w3.org/2000/svg" version="1.1" viewBox="0 0 1024 1024" height="1024px" width="1024px">
  <title>开发中</title>
  <defs>
    <rect rx="22.1405405" height="1024" width="1024" y="0" x="0" id="path-1"/>
    <linearGradient id="linearGradient-3" y2="64.8840762%" x2="50%" y1="-33.7184979%" x1="115.913479%">
      <stop offset="0%" stop-color="var(--el-color-primary)"/>
      <stop offset="100%" stop-opacity="0" stop-color="#FFFFFF"/>
    </linearGradient>
    <linearGradient id="linearGradient-4" y2="100%" x2="70.4980572%" y1="-20.569195%" x1="10.5031837%">
      <stop offset="0%" stop-color="var(--el-color-primary)"/>
      <stop offset="100%" stop-opacity="0" stop-color="#FFFFFF"/>
    </linearGradient>
    <linearGradient id="linearGradient-5" y2="104.73608%" x2="38.801584%" y1="-97.78046%" x1="100.191761%">
      <stop offset="0%" stop-color="var(--el-color-primary)"/>
      <stop offset="100%" stop-color="#FFFFFF"/>
    </linearGradient>
    <linearGradient id="linearGradient-6" y2="100%" x2="50%" y1="-27.9013949%" x1="50%">
      <stop offset="0%" stop-color="var(--el-color-primary)"/>
      <stop offset="100%" stop-opacity="0" stop-color="#FFFFFF"/>
    </linearGradient>
    <linearGradient id="linearGradient-7" y2="100%" x2="50%" y1="-27.9013949%" x1="50%">
      <stop offset="0%" stop-color="var(--el-color-primary)"/>
      <stop offset="100%" stop-opacity="0" stop-color="#FFFFFF"/>
    </linearGradient>
    <linearGradient id="linearGradient-8" y2="100%" x2="50%" y1="-221.1569%" x1="50%">
      <stop offset="0%" stop-color="#D2D2D2"/>
      <stop offset="100%" stop-opacity="0" stop-color="#D2D2D2"/>
    </linearGradient>
    <linearGradient id="linearGradient-9" y2="50%" x2="69.2110964%" y1="73.99117%" x1="39.6682562%">
      <stop offset="0%" stop-color="#64ADFF"/>
      <stop offset="100%" stop-color="#64ADFF"/>
    </linearGradient>
    <polyline points="42.4501781 5.76971943 0.497463025 123.483038 0 127.320316 1.02256288 130.798711 3.31642017 133.586949 6.688114 135.215721 20.1748893 137.783109 34.2144014 139.384275 48.8066501 139.991614 63.4265357 139.522306 78.7649789 137.893534 94.9048904 135.050084 98.3594948 133.448917 100.708626 130.66068 101.758825 127.127072 101.233726 123.262188 58.4519054 5.71450681 56.4344165 2.45696186 53.670733 0.607338888 50.4372234 0 47.1760769 0.634945201 44.4400302 2.51217449 42.4501781 5.76971943" id="path-10"/>
    <linearGradient id="linearGradient-12" y2="83.525485%" x2="31.7154109%" y1="50%" x1="60.7115362%">
      <stop offset="0%" stop-color="var(--el-color-primary-light-3)"/>
      <stop offset="100%" stop-color="#FFFFFF"/>
    </linearGradient>
  </defs>
  <g fill-rule="evenodd" fill="none" stroke-width="1" stroke="none" id="开发中">
    <g>
      <mask fill="white" id="mask-2">
        <use xlink:href="#path-1"/>
      </mask>
      <g id="蒙版"/>
      <g mask="url(#mask-2)" id="编组-3">
        <g transform="translate(0, 238.0108)">
          <g fill-rule="evenodd" fill="none" stroke-width="1" id="编组-2">
            <g fill-rule="nonzero" transform="translate(162.5599, 0)" id="编组">
              <polygon points="592.450826 498.100707 589.3555 489.432325 587.255101 479.632083 586.398359 469.500567 586.868185 459.341443 588.001295 452.660716 589.852963 446.421689 592.367915 440.541544 595.711972 435.158313 599.857498 430.520452 604.887401 426.517537 606.932527 428.091097 608.342006 430.133964 609.060564 432.508107 609.032927 435.075494 608.286732 439.989418 607.070711 451.308006 606.794343 463.813666 607.540538 469.25211 608.894743 472.371623 610.248947 473.448269 612.072979 473.393057 614.864299 471.791891 619.037461 467.319668 626.084854 456.884481 638.963619 434.136879 651.870021 411.527309 659.000324 400.705634 667.015006 390.325661 673.758394 383.451689 680.225413 378.42734 686.471338 374.921338 693.159452 372.491982 699.156645 371.470549 704.628738 371.691399 709.8521 373.126928 714.191083 375.639102 717.783871 379.283135 720.32646 383.755358 721.818849 389.331833 722.150491 396.343837 721.155565 403.328234 718.530066 411.610128 713.942351 421.493188 708.884811 429.471413 700.400302 443.19175 696.006046 451.031943 692.219799 458.706498 689.345568 466.270628 688.212458 472.09556 688.46119 475.601562 689.760121 477.920492 692.109252 479.438839 695.232214 479.714902 698.299903 479.052351 705.070927 476.540176 711.924862 473.393057 718.778797 470.383969 725.384001 468.258282 729.805894 467.595731 734.144877 467.8994 738.511497 469.224503 741.966102 471.377796 744.702148 474.055608 746.857821 477.368366 748.985858 483.000054 750.008421 489.349506 750.036057 495.864596 749.206952 502.158835 746.526179 511.40695 742.104286 520.737884 736.21764 529.406266 728.866242 537.16364 723.283601 541.608256 717.203498 545.25229 710.570657 548.123346 703.606175 550.000575 696.199503 550.745946 688.212458 550.359458 675.554788 548.09574 661.238907 544.396494 646.923027 539.537783 632.855878 533.464394 623.76336 528.688502 615.582857 523.526121 608.203822 517.977252 601.543344 511.683013 596.375256 505.140317 592.533736 498.349164" fill="url(#linearGradient-3)" id="路径"/>
              <polygon points="39.9075893 440.458725 31.7823599 436.096928 23.6571305 430.216783 16.222822 423.287598 9.75580266 415.447406 4.58771456 406.834236 1.21602073 397.834578 0.0552736694 391.623157 0 385.411737 1.05019972 379.117498 3.59278851 378.896647 5.99719313 379.421167 8.12522941 380.635845 9.83871316 382.54068 12.6023966 386.654021 19.2905106 395.87453 27.4986505 405.315889 31.6994494 408.849497 34.7947749 410.257419 36.5082587 410.146993 37.8348267 408.877103 38.8297528 405.840409 38.9403001 399.711807 37.1439059 387.26136 31.3401706 361.863552 25.7022563 336.465744 23.7676779 323.601202 22.8003886 310.488203 23.242578 300.881206 24.6520566 292.820163 26.9459139 286.056616 30.2899709 279.789983 34.0762172 275.014091 38.2770161 271.508089 43.1134622 269.078734 48.0051819 268.0573 53.1179963 268.333363 57.9820792 269.934529 62.8185253 273.081649 67.7655187 278.050785 71.6899493 283.903324 75.3103746 291.798729 78.5162474 302.206309 80.1191838 311.509637 83.0210515 327.383267 85.0385404 336.134468 87.4153082 344.361149 90.3448127 351.870067 93.4125013 356.977234 95.9550901 359.378984 98.4700421 360.234779 101.206089 359.765472 103.748678 357.888243 105.572709 355.320856 108.916766 348.916191 111.873907 342.014613 114.913959 335.195853 118.368563 329.23289 121.215157 325.782101 124.642125 323.159501 128.78765 321.254665 132.794991 320.509295 136.636511 320.674933 140.450394 321.696366 145.81194 324.429391 150.841844 328.459913 155.236101 333.291018 158.856526 338.508611 162.670409 345.575827 166.788298 354.823942 170.381086 364.762215 173.448775 375.639102 175.604448 386.764446 176.5441 397.641334 176.378279 404.874188 175.41099 411.499703 173.697506 417.628304 171.04437 423.315205 167.396308 428.173916 162.642772 432.314863 157.032495 435.62762 150.344381 438.691921 142.440246 441.424946 130.058944 444.572066 116.2958 446.835784 102.173378 448.160887 87.9956817 448.547375 74.0390802 447.967642 61.3537731 446.504508 49.4422973 443.964727 40.1563208 440.707182" fill="url(#linearGradient-4)" id="路径"/>
              <path fill="url(#linearGradient-5)" id="形状结合" d="M648.498327,284.510663 L644.71208,289.9215 L641.589118,295.939676 L639.350534,302.344341 L638.217424,308.914643 L638.355608,315.567765 L640.013818,322.165674 L642.224765,326.058164 L644.988449,328.92922 L647.94559,331.579426 L650.571089,334.505696 L652.284573,338.039304 L652.83731,343.588173 L651.648926,349.689168 L649.576163,355.458887 L646.619022,360.952544 L640.428371,370.780391 L633.408615,379.945687 L625.615028,388.53125 L630.092195,393.086292 L633.159883,398.524736 L634.735183,404.570518 L634.707546,410.947577 L633.215157,417.186603 L630.755479,423.066748 L627.411422,428.477585 L623.210623,433.336296 L620.115297,436.234959 L616.384325,438.25022 L612.459894,438.691921 L608.535464,438.25022 L595.960704,435.517195 L583.77286,431.624705 L571.944295,426.57275 L566.555112,423.729299 L561.608118,420.250904 L557.545504,416.027138 L554.864731,410.91997 L554.035626,406.723811 L554.25672,403.769935 L555.251646,401.699462 L557.877146,399.049256 L561.41466,396.895963 L562.685955,396.178199 L566.30638,393.886875 L569.180611,390.822574 L571.253374,386.129501 L572.524668,380.939514 L574.127604,370.55954 L575.150167,359.075314 L575.896362,352.781075 L577.444025,347.121781 L579.212782,343.864236 L581.783008,341.352061 L585.292886,339.557651 L592.533736,338.260154 L599.74695,336.935051 L604.389938,334.754152 L608.176185,331.827883 L611.243873,328.128637 L614.974846,321.696366 L618.180719,314.518725 L618.899277,312.751921 L622.630249,304.663271 L624.785922,300.908813 L627.273238,297.568449 L630.313289,294.86303 L634.292994,292.461281 L642.611681,288.430759 L646.28738,286.387892 L648.498327,284.510663 Z M619.009824,341.73855 L615.195941,346.514442 L606.158696,359.323771 L600.935334,367.854122 L595.463241,378.013245 L590.626795,388.807313 L586.702364,400.346752 L584.795423,408.269764 L583.717586,416.192776 L583.468855,424.115788 L595.325057,424.115788 L596.319983,416.109957 L599.912771,395.929742 L602.925186,383.313657 L607.153622,369.234437 L612.432257,355.238037 L619.009824,341.73855 Z"/>
              <polygon points="125.250135 60.7614951 125.250135 60.7614951 124.559214 54.3016178 122.431178 48.4214731 119.059484 43.2314863 114.55468 38.9249014 109.165497 35.7777818 102.947209 33.9005525 96.4525532 33.5416704 90.3171759 34.7011355 84.6239879 37.21331 79.6769945 40.9677686 75.6972903 45.7712671 72.8783332 51.6238055 66.8258663 52.3415696 61.3537731 54.5500746 56.6278743 58.111289 52.9245385 62.9147875 50.658318 68.5464754 49.9673972 74.3990138 50.8517759 80.2515521 53.3114542 85.8004211 57.1529742 90.4934943 61.9894203 93.8890708 67.5444241 95.931938 73.569254 96.4564579 123.011551 96.4564579 127.626903 95.7663001 131.634244 94.1375276 135.171759 91.5149279 137.963079 88.1193514 139.78711 84.1992549 140.699126 79.6442132 140.367484 74.9787463 139.013279 70.8654057 136.664148 67.1661597 133.513549 64.1294653 129.727302 62.0037792" fill="url(#linearGradient-6)" id="路径"/>
              <polygon points="329.569254 33.7073083 329.569254 33.5416704 329.127065 28.130833 327.911044 23.0788777 325.921192 18.3305919 321.665119 11.9259273 316.054842 6.65312145 311.715859 3.89249014 306.934686 1.84962298 301.656051 0.496913635 296.266868 0 291.071143 0.35888207 286.041239 1.49074091 278.993846 4.61025428 272.858469 9.22050857 269.376228 13.0301798 266.557271 17.3643709 264.318687 22.305901 259.205873 22.8856335 254.507611 24.2383429 250.196265 26.364029 246.299471 29.2074792 243.010688 32.6030557 240.302278 36.5783648 238.284789 40.9677686 237.096405 45.6608418 236.681853 50.7956161 237.234589 55.902784 238.588794 60.5682509 240.744467 64.8748357 243.591061 68.7673259 246.990392 72.0524771 250.970096 74.7855021 255.364353 76.7731567 260.062615 77.9878345 265.203066 78.3743228 326.612113 78.3743228 332.360574 77.6565587 337.501026 75.5860852 341.950556 72.3285403 345.488071 68.1047744 347.892475 63.1080317 348.997949 57.4211312 348.611033 51.6514118 346.842276 46.378606 343.885134 41.7683517 339.877793 37.9862868 335.041347 35.2808681 329.403433 33.8453398" fill="url(#linearGradient-7)" id="路径"/>
            </g>
            <polygon points="1024 550.359458 999.596675 534.403009 973.839145 519.164324 946.672136 504.615797 918.040376 490.785034 889.159883 478.224161 859.118644 466.491478 827.833747 455.669804 795.305193 445.703925 762.693728 437.007936 729.114974 429.360987 694.541293 422.735472 658.917413 417.186603 623.348807 412.880018 587.034006 409.760505 549.945374 407.883276 512 407.193118 474.054626 407.883276 436.965994 409.760505 400.623556 412.880018 365.082587 417.186603 329.458707 422.735472 294.885026 429.360987 261.306272 437.007936 228.694807 445.703925 196.166253 455.669804 164.881356 466.491478 134.840117 478.224161 105.931987 490.785034 77.3278635 504.615797 50.160855 519.164324 24.4033251 534.403009 0 550.359458" fill-rule="nonzero" fill="url(#linearGradient-8)" id="路径"/>
          </g>
          <polygon points="621.763258 353.972306 624.12639 348.267711 624.323318 347.733783 624.323318 347.424667 625.054764 345.232753 625.701812 343.349956 626.376992 341.158042 626.939643 339.219042 627.502293 336.942824 627.952414 335.031925 628.486932 332.699504 628.852654 330.788605 629.24651 328.343779 629.527835 326.489083 629.80916 323.903749 630.03422 322.161459 630.231148 319.29511 630.231148 317.74953 630.231148 313.337602 629.499702 302.602846 627.642956 292.767336 624.660908 283.746769 620.609825 275.428738 615.405308 267.672737 609.469345 260.928387 602.717539 255.167589 595.065493 250.334139 549.828393 225.913974 557.48044 230.775526 564.232246 236.536324 570.196341 243.252572 575.372726 251.008574 579.423809 259.326604 582.377724 268.347172 584.262603 278.182681 584.994049 288.945538 584.994049 293.385568 584.994049 294.903047 584.797121 297.741294 584.600194 299.483584 584.290736 302.125121 583.981278 303.951715 583.615555 306.396542 583.2217 308.27934 582.743447 310.667963 582.265194 312.550761 581.702544 314.826979 581.111761 316.737878 580.464712 318.957893 579.845797 320.84069 579.058086 323.004502 578.748629 323.847546 576.385496 329.552141 576.132304 330.170373 573.319051 335.818766 572.700136 336.970925 570.027546 341.551463 570.027546 341.748173 567.214294 345.991493 566.342185 347.227957 564.091583 350.37532 563.303873 351.358871 560.124897 355.124466 559.449717 355.855103 556.692729 358.749553 555.623693 359.817409 552.866706 362.430844 551.994598 363.217685 548.084177 366.365048 547.155804 367.095686 543.751768 369.568614 542.738997 370.27115 537.53448 373.446614 536.577974 373.980542 531.035867 376.818789 530.107494 377.240311 526.16894 378.898297 524.959242 379.376022 520.064183 381.034007 519.417135 381.230718 515.000328 382.354776 513.649967 382.691993 508.501715 383.59124 505.43527 383.956559 502.115632 384.209472 500.146355 384.209472 495.729549 384.209472 493.535212 384.209472 489.343466 383.759849 487.346057 383.506935 482.113407 382.410979 481.466359 382.410979 475.783589 380.640587 474.12377 380.022355 470.269615 378.364369 467.062507 376.790688 512.355871 401.154649 514.690871 402.363012 515.591111 402.784534 519.4734 404.414418 521.105086 405.060752 526.815989 406.831143 526.815989 406.831143 527.406772 406.831143 532.639421 407.898999 534.608698 408.151912 538.800444 408.573434 541.022913 408.573434 545.411587 408.573434 547.408996 408.573434 553.795079 407.983303 558.943331 407.055955 560.321825 406.746839 564.710499 405.594679 565.385679 405.397969 570.252606 403.768085 571.490437 403.262259 575.428991 401.604273 576.132304 401.323258 576.357364 401.323258 581.871339 398.485011 582.827845 397.894881 588.060494 394.747518 588.398084 394.522706 589.073265 394.044981 592.280373 391.572053 593.236879 390.841415 597.147299 387.665951 597.37236 387.497342 598.019408 386.87911 600.776395 384.293776 601.845431 383.225921 604.574286 380.30337 605.108804 379.769442 605.108804 379.572732 608.315912 375.807137 609.047357 374.823586 611.354224 371.648121 611.832477 371.029889 612.1982 370.46786 615.011452 366.22454 615.011452 366.02783 617.712175 361.39109 618.021633 360.857162 618.302958 360.295133 621.11621 354.618639" fill-rule="nonzero" fill="#64ADFF" id="路径"/>
          <path fill-rule="nonzero" fill="#64ADFF" id="形状结合" d="M567.494764,113.268703 L568.517327,113.43434 L569.346432,113.655191 L575.923999,115.863696 L577.913851,116.609066 L582.418655,118.348264 L584.601965,119.259273 L589.023858,121.219321 L590.875526,122.102723 L591.594084,122.433999 L597.03854,125.167024 L641.174565,148.908453 L634.928641,145.844152 L633.076973,144.988356 L628.655079,143.000702 L626.471769,142.089693 L621.939329,140.322889 L619.949476,139.577519 L613.399547,137.39662 L611.630789,136.789281 L608.950016,136.789281 L607.153622,137.313801 L605.799417,138.141991 L605.467775,138.362841 L604.334665,139.439487 L603.975386,139.770763 L602.427723,141.675599 L599.719313,145.1816 L598.807298,146.258247 L596.900356,148.494358 L596.706898,148.715209 L596.098888,149.37776 L593.63921,151.972754 L592.5061,153.077006 L590.212242,155.257905 L589.521321,155.920456 L589.079132,156.251732 L585.652165,159.122789 L581.948829,161.828207 L581.561913,162.10427 L581.009176,162.435546 L576.670193,165.140965 L576.366188,165.361815 L571.7232,167.763565 L571.1981,168.039628 L570.617726,168.260478 L567.190759,169.696007 L566.610385,169.944463 L562.575408,171.297173 L561.497571,171.656055 L558.374609,172.456638 L557.186225,172.705095 L553.095973,173.422859 L548.14898,173.892166 L541.405592,173.892166 L537.978625,173.56089 L536.458599,173.34004 L531.81561,172.429031 L531.622153,172.429031 L526.896254,170.965897 L525.459139,170.386164 L522.336176,169.033455 L521.534708,168.702179 L519.517219,167.653139 L493.204704,153.524703 L443.322466,192.277971 L445.701161,244.205446 L430.416064,275.62143 L424.86106,284.151781 L418.283493,291.909155 L410.600453,298.838339 L401.756666,304.939334 L391.641585,310.267353 L389.209543,311.675275 L386.666955,313.828567 L384.677102,316.285529 L384.691892,318.162758 L386.590968,386.550751 C410.038168,397.328016 423.918758,405.907705 428.232736,412.289817 C431.862257,417.659341 440.988097,429.467625 443.606042,446.625997 C444.444994,452.124606 443.585849,461.553075 441.028608,474.911404 L440.375704,485.826703 L443.916908,487.83719 L446.252116,491.10031 L458.803996,498.247542 L468.000146,505.195529 C460.163756,502.386714 453.196842,499.434231 447.099406,496.338082 C441.001969,493.241933 431.912553,488.041351 419.831156,480.736336 L409.356796,474.359278 L399.54572,466.988392 L394.710152,462.905314 L394.880704,461.966703 L394.958704,461.538703 L395.020714,461.199382 L397.030768,451.059549 L398.080967,440.928033 L398.080967,431.486673 L397.003131,422.15574 L394.709273,413.183688 L391.254669,404.515306 L386.943323,396.564687 L383.615704,392.227703 L344.327324,370.642359 L342.503293,369.179225 L341.204361,367.329602 L340.458167,365.176309 L340.34762,362.829773 L339.960704,328.432307 L340.126525,293.979628 L340.789809,292.102399 L342.807298,289.645437 L345.349887,287.492144 L347.754291,286.056616 L357.814099,280.756204 L366.630249,274.655209 L374.313289,267.726024 L380.918493,259.96865 L386.473497,251.4383 L391.088848,242.052153 L394.709273,231.727392 L397.334773,220.325985 L398.219151,210.995051 L397.887509,201.498479 L395.234373,182.753793 L394.681637,178.115932 L394.985642,174.527111 L396.39512,171.324779 L399.435172,168.09484 L447.799633,129.418396 L450.038217,127.900048 L452.580805,127.044253 L454.515384,127.099465 L456.311778,127.762017 L497.116704,150.180703 L497.352478,150.205949 L504.095865,150.205949 L509.042859,149.764248 L513.13311,149.046484 L514.321494,148.770421 L517.444456,147.969838 L518.54993,147.666169 L522.584908,146.258247 L523.137644,146.065003 L526.592249,144.574262 L527.670085,144.077348 L532.313074,141.675599 L532.617079,141.509961 L536.956062,138.776936 L537.895714,138.141991 L541.59905,135.436572 L541.764871,135.436572 L545.219475,132.565515 L546.297312,131.544082 L548.618806,129.390789 L549.724279,128.258931 L552.211595,125.663937 L553.013063,124.808141 L554.090899,123.538251 L554.920004,122.544424 L555.804383,121.467778 L558.568067,117.961776 L559.949908,116.222578 L560.309187,115.863696 L561.000108,115.173538 L561.469934,114.78705 L561.773939,114.538593 L561.995034,114.372955 L563.072871,113.73801 L564.813991,113.268703 L567.494764,113.268703 Z"/>
          <path fill-rule="nonzero" fill="var(--el-color-primary-light-3)" id="形状" d="M721.597755,269.189159 L723.449422,286.498317 L724.08507,304.028326 L723.670517,315.733403 L722.399223,327.576511 L720.271186,339.585257 L718.612976,343.339716 L716.236209,346.404017 L713.030336,348.943797 L704.601101,353.609264 L696.890424,359.158133 L689.815395,365.61801 L683.486559,372.795652 L677.986829,380.553026 L673.316204,388.890132 L669.529958,397.696546 L666.766274,406.723811 L664.96988,416.054744 L664.251322,425.496104 L664.665875,434.909856 L666.268811,444.351215 L666.849185,448.216099 L666.324085,451.998164 L664.776422,455.47656 L662.206197,458.458041 L650.571089,469.914661 L638.189787,480.377454 L625.062291,489.874026 L611.133326,498.404376 L608.507827,499.729479 L605.68887,500.530062 L602.897549,500.336818 L600.493145,499.398204 L598.309835,497.6314 L591.870452,492.551838 L584.961244,488.604135 L577.471661,485.733079 L569.650437,483.993881 L561.718666,483.441755 L553.538163,484.0767 L544.804923,486.036748 L536.569146,488.990624 L528.720285,492.938326 L521.424161,497.824644 L514.79132,503.539151 L508.821764,510.164666 L506.389723,512.925297 L503.515492,514.885345 L500.060887,516.155236 L497.269567,516.182842 L494.53352,515.603109 L480.853287,511.186099 L467.753428,505.41638 L455.289215,498.321557 L443.626471,489.929238 L441.27734,487.168607 L439.342762,484.0767 L441.498435,473.172206 L442.548634,463.013083 L442.548634,453.544118 L441.443161,444.185577 L439.149304,435.213526 L435.667063,426.517537 L430.692432,417.766336 L425.026881,410.478269 L418.615135,404.542912 L411.319011,399.794626 L402.972687,396.371443 L393.465616,394.273363 L389.651733,393.334749 L386.97096,391.67837 L385.257476,389.138589 L384.566555,385.108067 L384.179639,350.876239 L384.34546,316.616805 L385.008744,314.739575 L387.026233,312.282614 L389.624096,310.156927 L392.000864,308.749005 L402.171219,303.4762 L411.015006,297.402811 L418.75332,290.528839 L425.38616,282.799071 L430.996437,274.323933 L435.611789,264.965393 L439.259851,254.695844 L441.912987,243.404862 L442.797366,234.101535 L442.438087,224.660176 L439.757314,206.053521 L439.204577,201.443267 L439.536219,197.854446 L440.945698,194.67972 L444.013387,191.449781 L492.709489,152.966581 L494.948073,151.448234 L497.518299,150.564832 L500.226708,150.868501 L502.492929,151.945147 L504.455144,153.822376 L511.170895,160.420285 L518.605203,165.610272 L526.84098,169.502762 L535.629494,172.014937 L544.639102,173.008764 L554.035626,172.51185 L562.824139,170.579409 L571.557379,167.294257 L580.318255,162.490759 L588.360574,156.583008 L596.098888,149.212122 L603.477923,140.267677 L606.241606,137.120557 L610.000216,135.326147 L612.294073,135.353753 L614.532657,135.878273 L628.489258,140.957835 L641.727302,147.252074 L654.246788,154.84381 L666.158264,163.733043 L668.479758,166.686918 L669.004858,169.530369 L667.567743,175.990246 L665.273885,187.529685 L664.582964,198.655029 L665.439706,209.559523 L667.816474,220.187953 L671.51981,229.905375 L676.522077,238.794608 L682.878549,246.745226 L690.312858,253.287923 L698.93555,258.505516 L702.77707,259.913438 L706.839685,260.962478 L714.882004,263.198589 L719.110439,265.683157 L720.823923,267.394748 L721.597755,269.189159 Z M553.234157,406.999874 L563.542697,404.763762 L573.298499,401.257761 L582.584476,396.39905 L591.234805,390.436086 L599.13894,383.451689 L606.352154,375.445858 L612.625715,366.66705 L617.931987,357.198085 L622.270971,346.983749 L625.42157,336.355319 L627.356148,325.312793 L628.047069,313.828567 L627.328511,302.896467 L625.338659,292.875375 L622.160423,283.682473 L617.73853,275.014091 L612.376984,267.394748 L606.048149,260.714021 L598.834935,254.999514 L590.875526,250.472079 L582.142287,247.048896 L572.966857,244.950816 L563.238692,244.205446 L552.791968,244.895603 L550.802116,245.14406 L540.742308,247.352565 L531.179963,250.91378 L522.004534,255.85531 L513.520026,261.901092 L505.726439,268.913096 L498.623772,276.974139 L492.405484,285.752947 L487.209759,295.083881 L482.981324,304.994547 L479.858361,315.291702 L478.006693,325.726888 L477.42632,336.327712 L478.227788,347.563482 L480.272914,357.83303 L483.506423,367.246783 L487.955954,376.136016 L493.345137,383.948602 L499.673972,390.794968 L506.914822,396.647506 L514.874231,401.312973 L523.635107,404.791369 L532.810537,406.944661 L542.593976,407.690032 L553.12361,406.999874"/>
          <polygon points="762.776638 492.68987 762.196265 490.205301 760.565691 487.693127 757.52564 485.070527 752.578646 482.28229 745.807622 479.604477 737.019108 477.119909 725.82619 474.883798 708.497895 472.84093 688.157184 472.067954 667.816474 472.84093 650.488179 474.883798 639.295261 477.119909 630.506747 479.604477 623.735723 482.28229 618.788729 485.070527 615.748678 487.693127 614.118104 490.205301 613.537731 492.68987 613.537731 495.616139 614.118104 498.100707 615.748678 500.612881 618.788729 503.235481 623.735723 506.023719 630.506747 508.701531 639.295261 511.213706 650.488179 513.422211 667.816474 515.465078 688.157184 516.238055 708.497895 515.465078 725.82619 513.422211 737.019108 511.213706 745.807622 508.701531 752.578646 506.023719 757.52564 503.235481 760.565691 500.612881 762.196265 498.100707 762.776638 495.616139" fill-rule="nonzero" fill="#64ADFF" id="Fill-1"/>
          <polyline points="760.012955 492.772688 759.045666 496.140659 756.143798 499.563841 750.395336 503.235481 743.983591 505.913294 735.664903 508.425468 725.107633 510.661579 708.746626 512.704447 689.539026 513.477423 670.331426 512.704447 653.97042 510.661579 643.413149 508.425468 635.094462 505.913294 628.682716 503.235481 622.934255 499.563841 620.032387 496.140659 619.065098 492.772688 620.032387 489.404718 622.934255 485.981535 628.682716 482.309896 635.094462 479.632083 643.413149 477.119909 653.97042 474.883798 670.331426 472.84093 689.539026 472.067954 708.746626 472.84093 725.107633 474.883798 735.664903 477.119909 743.983591 479.632083 750.395336 482.309896 756.143798 485.981535 759.045666 489.404718 760.012955 492.772688" fill-rule="nonzero" fill="var(--el-color-primary-light-3)" id="Fill-1"/>
          <polyline points="679.81086 368.047366 637.858145 485.760685 637.360682 489.597962 638.383245 493.076358 640.677102 495.864596 644.048796 497.493368 657.535572 500.060755 671.575084 501.661921 686.167332 502.26926 700.787218 501.799953 716.125661 500.17118 732.265573 497.32773 735.720177 495.726564 738.069308 492.938326 739.119508 489.404718 738.594408 485.539834 695.812588 367.992153 693.795099 364.734608 691.031415 362.884985 687.797906 362.277647 684.536759 362.912592 681.800713 364.789821 679.81086 368.047366" fill-rule="nonzero" fill="url(#linearGradient-9)" id="path-12"/>
          <g transform="translate(637.3607, 362.2776)" fill-rule="evenodd" fill="none" stroke-width="1" id="Clipped">
            <mask fill="white" id="mask-11">
              <use xlink:href="#path-10"/>
            </mask>
            <g id="路径"/>
            <path mask="url(#mask-11)" fill-rule="nonzero" fill="url(#linearGradient-12)" id="形状" d="M89.128792,78.8436302 L103.140667,88.9475407 L95.8721796,98.4993251 L86.7520242,108.27196 L75.5038325,118.265445 L61.8788729,128.534994 L45.6007773,139.052999 L26.2826298,149.847067 L3.64806218,160.889593 L0.856741876,162.159483 L-5.9695563,145.954577 L19.3181475,133.642162 L40.0734103,121.881872 L56.8213322,110.673709 L70.1146497,100.017672 L80.4508259,89.8585491 L88.2444133,80.1135206 L89.128792,78.8436302 Z M89.128792,25.8671154 L103.140667,35.9434196 L95.8721796,45.5228103 L86.7520242,55.2678388 L75.5038325,65.2889304 L61.8788729,75.5308726 L45.6007773,86.0488779 L26.2826298,96.8429463 L3.64806218,107.885472 L0.856741876,109.155362 L-5.9695563,92.9780625 L19.3181475,80.6656468 L40.0734103,68.9053574 L56.8213322,57.6971943 L70.1146497,47.0411575 L80.4508259,36.854428 L88.2444133,27.1370058 L89.128792,25.8671154 Z M89.128792,-18.3029856 L103.140667,-8.19907498 L95.8721796,1.35270934 L86.7520242,11.1253442 L75.5038325,21.1188295 L61.8788729,31.388378 L45.6007773,41.9063833 L26.2826298,52.7004517 L3.64806218,63.7429769 L0.856741876,65.0128673 L-5.9695563,48.8079615 L19.3181475,36.4955459 L40.0734103,24.7352565 L56.8213322,13.5270934 L70.1146497,2.87105656 L80.4508259,-7.28806665 L88.2444133,-17.0330952 L89.128792,-18.3029856 Z"/>
          </g>
        </g>
      </g>
    </g>
  </g>
</svg>